<svg xmlns="http://www.w3.org/2000/svg" viewBox="0 0 128 128" role="img" aria-labelledby="title description">
  <title id="title">Tic Toc Pharma</title>
  <desc id="description">Logo con reloj y cruz farmaceutica.</desc>
  <rect x="5" y="5" width="118" height="118" rx="28" fill="#ffffff"/>
  <rect x="5" y="5" width="118" height="118" rx="28" fill="#f1f4f9" opacity="0.76"/>
  <path d="M23 35c9-16 24-24 41-24 28 0 51 23 51 51s-23 51-51 51c-17 0-32-8-41-21" fill="none" stroke="#283890" stroke-width="9" stroke-linecap="round"/>
  <path d="M64 31v34l23 14" fill="none" stroke="#0f75bd" stroke-width="9" stroke-linecap="round" stroke-linejoin="round"/>
  <circle cx="64" cy="64" r="8" fill="#283890"/>
  <path d="M31 63h25M43.5 50.5v25" fill="none" stroke="#0f75bd" stroke-width="9" stroke-linecap="round"/>
  <path d="M34 94c-9-8-15-20-16-33" fill="none" stroke="#0f75bd" stroke-width="9" stroke-linecap="round"/>
  <path d="M38 28l-8-9M90 28l8-9" fill="none" stroke="#283890" stroke-width="7" stroke-linecap="round"/>
  <rect x="5" y="5" width="118" height="118" rx="28" fill="none" stroke="#dbe3ef" stroke-width="3"/>
</svg>
